<svg width="133" height="38" viewBox="0 0 133 38" fill="none" xmlns="http://www.w3.org/2000/svg">
<g clip-path="url(#clip0_4_2)">
<path d="M10.1802 34.8191C10.0318 34.8191 9.88192 34.7815 9.75232 34.7019C9.47595 34.5329 9.34323 34.22 9.42286 33.9222L10.8094 28.729H5.43185C5.06335 28.729 4.74326 28.4916 4.66831 28.1559L0.0168105 7.63062C-0.028471 7.42944 0.0183719 7.22104 0.149532 7.05605C0.279131 6.89106 0.477432 6.78396 0.697594 6.76189L35.0818 3.33655C35.3188 3.3105 35.5581 3.39299 35.7251 3.55075C35.8922 3.7085 35.9715 3.93283 35.9387 4.15137L32.8798 25.206C32.8267 25.5649 32.4977 25.8341 32.1058 25.8341H23.1322L10.6564 34.6701C10.5143 34.7699 10.3472 34.8191 10.1802 34.8191Z" fill="#FE805A"/>
<path d="M61.7979 1.89303L64.4741 1.17498L57.9949 24.6094L56.4808 25.8497L55.2483 24.9031L54.3328 26.2087L52.22 25.2295L50.6707 26.3392L43.1351 1.14235L44.931 1.66456L45.6705 0.391662L47.4663 0.783323L49.4382 0.22847L53.9103 15.8296L58.171 0.522215L60.3542 0.0979152L61.7979 1.89303ZM70.2842 0.913876L72.397 0.815961L72.2209 25.2622L70.2842 26.5677L67.9602 25.1316L66.0587 26.1434L66.2347 1.17498L68.1715 0L69.4743 1.30554L70.2842 0.913876ZM90.8485 16.9394C91.3767 15.4053 88.5949 14.981 86.8695 15.0137C85.5314 15.0463 84.3341 15.1116 83.3834 15.3727L83.4186 20.4643C86.5525 20.2032 90.0738 19.0935 90.8485 16.9394ZM88.771 6.10339C88.9822 5.74437 88.3484 5.61381 87.3624 5.61381C86.13 5.58117 84.6158 5.71173 83.313 5.90756L83.3482 9.43251C85.1792 8.87766 87.9611 7.57212 88.771 6.10339ZM96.6938 18.6366C94.3698 25.4906 85.3201 26.0455 80.8129 26.3392C80.5312 25.9802 80.1438 25.458 79.9325 25.1642L78.4184 24.7073L78.7353 23.2712L77.6437 23.0427L77.5028 6.65824L75.8478 6.88671L75.707 5.32007L74.9675 4.60202L75.7422 2.83955L74.4393 1.33818C77.6437 0.8486 81.0593 0.293747 84.4398 0.163193C87.7498 6.20097e-07 91.3063 0.228469 93.3486 1.72984C96.8699 4.27564 94.5459 8.38808 92.0457 10.8033C95.074 11.913 98.0671 14.5894 96.6938 18.6366ZM103.349 0.913876L105.462 0.815961L105.286 25.2622L103.349 26.5677L101.025 25.1316L99.1235 26.1434L99.2996 1.17498L101.236 0L102.539 1.30554L103.349 0.913876ZM126.625 10.5749C125.956 6.85407 123.42 5.54854 119.723 7.37629C113.631 10.379 112.927 16.0581 114.899 18.4407C116.8 20.7254 119.899 20.3664 122.082 19.1261C125.85 16.972 127.153 13.4797 126.625 10.5749ZM132.752 8.51863C133.984 15.6338 130.357 20.9539 127.822 22.6837C119.723 28.1996 113.103 26.4045 109.476 21.4108C105.391 15.7644 109.652 4.04717 119.723 1.07707C120.815 0.750685 122.716 0.554854 124.618 0.718046L125.005 2.28469L125.78 2.15414L126.449 2.67635L126.942 1.50137C130.076 3.00274 132.153 5.15687 132.752 8.51863Z" fill="#393E46"/>
<path d="M46.1668 37.6804C45.6814 37.6804 45.2919 37.3134 45.2919 36.8694V36.2243H45.9113V36.8694C45.9113 36.9997 46.0263 37.1062 46.1668 37.1062C46.3073 37.1062 46.4158 36.9997 46.4158 36.8694V36.3071L45.2919 34.8688V34.1348C45.2919 33.685 45.6814 33.318 46.1668 33.318C46.6457 33.318 47.0353 33.685 47.0353 34.1348V34.7741H46.4158V34.1348C46.4158 33.9987 46.3073 33.8981 46.1668 33.8981C46.0263 33.8981 45.9113 33.9987 45.9113 34.1348V34.6735L47.0353 36.1118V36.8694C47.0353 37.3134 46.6457 37.6804 46.1668 37.6804ZM49.3135 33.4186H49.9201V37.6389H49.3135V35.4074H48.7707V37.6389H48.164V33.4186H48.7707V34.851H49.3135V33.4186ZM52.639 37.6449L52.4091 36.1828H51.7641L51.5534 37.6449H50.9403L51.63 33.4127H52.4538L53.252 37.6449H52.639ZM51.8471 35.6205H52.3197L52.077 34.0815L51.8471 35.6205ZM56.0411 37.6567H55.3897L55.0385 36.7629H54.898V37.6567H54.2914V33.4186H55.2429C55.6643 33.4186 56.0028 33.7323 56.0028 34.123V36.0585C56.0028 36.3131 55.8623 36.5321 55.6452 36.6564L56.0411 37.6567ZM54.898 33.9809V36.2006H55.2429C55.3259 36.2006 55.3961 36.1355 55.3961 36.0585V34.123C55.3961 34.046 55.3259 33.9809 55.2429 33.9809H54.898ZM58.6578 35.4133H57.7765V37.0825H58.6642V37.6449H57.1698V33.4186H58.6642V33.9809H57.7765V34.851H58.6578V35.4133ZM63.1503 37.6449H62.5181L61.8795 33.4186H62.4926L62.8246 35.5968L63.1312 33.4186H63.7442L63.1503 37.6449ZM65.4796 33.4068V37.6212H64.8729V33.4068H65.4796ZM68.0963 35.1351C68.2368 35.2654 68.3262 35.4429 68.3262 35.6383V36.9346C68.3262 37.3252 67.9813 37.6449 67.5598 37.6449H66.6147L66.6083 33.4304H67.4513C67.9175 33.4482 68.1921 33.8625 68.1857 34.2532L68.1793 34.8392C68.1793 34.9457 68.1474 35.0464 68.0963 35.1351ZM67.5598 37.0766C67.6492 37.0766 67.7195 37.0115 67.7195 36.9346L67.7131 35.6383C67.7131 35.5554 67.6429 35.4962 67.5598 35.4962H67.2214V37.0766H67.5598ZM67.215 33.9928V34.928H67.4704C67.5215 34.928 67.5726 34.8865 67.5726 34.8333L67.579 34.2473C67.579 34.1289 67.5151 33.9987 67.4257 33.9928H67.215ZM70.9428 35.4133H70.0616V37.0825H70.9492V37.6449H69.4549V33.4186H70.9492V33.9809H70.0616V34.851H70.9428V35.4133ZM72.9528 37.6804C72.4675 37.6804 72.0779 37.3134 72.0779 36.8694V36.2243H72.6974V36.8694C72.6974 36.9997 72.8123 37.1062 72.9528 37.1062C73.0933 37.1062 73.2019 36.9997 73.2019 36.8694V36.3071L72.0779 34.8688V34.1348C72.0779 33.685 72.4675 33.318 72.9528 33.318C73.4318 33.318 73.8213 33.685 73.8213 34.1348V34.7741H73.2019V34.1348C73.2019 33.9987 73.0933 33.8981 72.9528 33.8981C72.8123 33.8981 72.6974 33.9987 72.6974 34.1348V34.6735L73.8213 36.1118V36.8694C73.8213 37.3134 73.4318 37.6804 72.9528 37.6804ZM75.4865 38H75.4098L75.2821 37.6449H74.95V37.1003H75.4865V38ZM79.5767 37.6804C79.0913 37.6804 78.7018 37.3134 78.7018 36.8694V36.2243H79.3212V36.8694C79.3212 36.9997 79.4362 37.1062 79.5767 37.1062C79.7172 37.1062 79.8257 36.9997 79.8257 36.8694V36.3071L78.7018 34.8688V34.1348C78.7018 33.685 79.0913 33.318 79.5767 33.318C80.0556 33.318 80.4452 33.685 80.4452 34.1348V34.7741H79.8257V34.1348C79.8257 33.9987 79.7172 33.8981 79.5767 33.8981C79.4362 33.8981 79.3212 33.9987 79.3212 34.1348V34.6735L80.4452 36.1118V36.8694C80.4452 37.3134 80.0556 37.6804 79.5767 37.6804ZM82.7234 33.4186H83.3301V37.6389H82.7234V35.4074H82.1806V37.6389H81.5739V33.4186H82.1806V34.851H82.7234V33.4186ZM86.0489 37.6449L85.819 36.1828H85.174L84.9633 37.6449H84.3502L85.0399 33.4127H85.8637L86.6619 37.6449H86.0489ZM85.257 35.6205H85.7296L85.4869 34.0815L85.257 35.6205ZM89.451 37.6567H88.7997L88.4484 36.7629H88.3079V37.6567H87.7013V33.4186H88.6528C89.0743 33.4186 89.4127 33.7323 89.4127 34.123V36.0585C89.4127 36.3131 89.2722 36.5321 89.0551 36.6564L89.451 37.6567ZM88.3079 33.9809V36.2006H88.6528C88.7358 36.2006 88.806 36.1355 88.806 36.0585V34.123C88.806 34.046 88.7358 33.9809 88.6528 33.9809H88.3079ZM92.0677 35.4133H91.1864V37.0825H92.0741V37.6449H90.5798V33.4186H92.0741V33.9809H91.1864V34.851H92.0677V35.4133ZM97.1414 33.4068H98.2078V37.633H97.6075V34.2887L97.0392 37.6449H96.8029L96.7454 37.633L96.6943 37.6449H96.4581L95.8961 34.2887V37.633H95.2894V33.4068H96.3623L96.7518 35.7981L97.1414 33.4068ZM100.199 37.6508C99.7197 37.6508 99.3365 37.2897 99.3365 36.8517V34.194C99.3365 33.756 99.7197 33.4008 100.199 33.4008C100.671 33.4008 101.054 33.756 101.054 34.194V36.8517C101.054 37.2897 100.671 37.6508 100.199 37.6508ZM100.199 33.9632C100.058 33.9632 99.9496 34.0697 99.9496 34.194V36.8517C99.9496 36.9819 100.058 37.0825 100.199 37.0825C100.333 37.0825 100.448 36.9819 100.448 36.8517V34.194C100.448 34.0697 100.333 33.9632 100.199 33.9632ZM104.035 33.4068H105.101V37.633H104.501V34.2887L103.933 37.6449H103.697L103.639 37.633L103.588 37.6449H103.352L102.79 34.2887V37.633H102.183V33.4068H103.256L103.645 35.7981L104.035 33.4068ZM107.718 35.4133H106.837V37.0825H107.725V37.6449H106.23V33.4186H107.725V33.9809H106.837V34.851H107.718V35.4133ZM110.335 36.6741L110.36 33.3949H110.973L110.935 37.6685H109.984L109.466 34.3597V37.6685H108.853V33.3949H109.843L110.335 36.6741ZM114.312 33.4068V33.975H113.552V37.6508H112.939V33.975H112.102V33.4068H114.312ZM116.315 37.6804C115.83 37.6804 115.44 37.3134 115.44 36.8694V36.2243H116.06V36.8694C116.06 36.9997 116.175 37.1062 116.315 37.1062C116.456 37.1062 116.564 36.9997 116.564 36.8694V36.3071L115.44 34.8688V34.1348C115.44 33.685 115.83 33.318 116.315 33.318C116.794 33.318 117.184 33.685 117.184 34.1348V34.7741H116.564V34.1348C116.564 33.9987 116.456 33.8981 116.315 33.8981C116.175 33.8981 116.06 33.9987 116.06 34.1348V34.6735L117.184 36.1118V36.8694C117.184 37.3134 116.794 37.6804 116.315 37.6804Z" fill="#393E46"/>
</g>
<defs>
<clipPath id="clip0_4_2">
<rect width="133" height="38" fill="white"/>
</clipPath>
</defs>
</svg>
