<svg width="38" height="38" viewBox="0 0 38 38" fill="none" xmlns="http://www.w3.org/2000/svg">
<path d="M10.1802 34.8191C10.0318 34.8191 9.88192 34.7815 9.75232 34.7019C9.47595 34.5329 9.34323 34.22 9.42286 33.9222L10.8094 28.729H5.43185C5.06335 28.729 4.74326 28.4916 4.66831 28.1559L0.0168105 7.63062C-0.028471 7.42944 0.0183719 7.22104 0.149532 7.05605C0.279131 6.89106 0.477432 6.78396 0.697594 6.76189L35.0818 3.33655C35.3188 3.3105 35.5581 3.39299 35.7251 3.55075C35.8922 3.7085 35.9715 3.93283 35.9387 4.15137L32.8798 25.206C32.8267 25.5649 32.4977 25.8341 32.1058 25.8341H23.1322L10.6564 34.6701C10.5143 34.7699 10.3472 34.8191 10.1802 34.8191Z" fill="#FE805A"/>
</svg>
